<?xml version="1.0" encoding="UTF-8" standalone="no"?>
<!-- Generator: Adobe Illustrator 19.0.0, SVG Export Plug-In . SVG Version: 6.00 Build 0)  -->

<svg
   xmlns:dc="http://purl.org/dc/elements/1.1/"
   xmlns:cc="http://creativecommons.org/ns#"
   xmlns:rdf="http://www.w3.org/1999/02/22-rdf-syntax-ns#"
   xmlns:svg="http://www.w3.org/2000/svg"
   xmlns="http://www.w3.org/2000/svg"
   xmlns:sodipodi="http://sodipodi.sourceforge.net/DTD/sodipodi-0.dtd"
   xmlns:inkscape="http://www.inkscape.org/namespaces/inkscape"
   height="16"
   width="16"
   version="1.1"
   id="Capa_1"
   x="0px"
   y="0px"
   viewBox="0 0 512 512"
   style="enable-background:new 0 0 512 512;"
   xml:space="preserve"
   sodipodi:docname="500.svg"
   inkscape:version="0.92.2 (5c3e80d, 2017-08-06)"><metadata
     id="metadata89"><rdf:RDF><cc:Work
         rdf:about=""><dc:format>image/svg+xml</dc:format><dc:type
           rdf:resource="http://purl.org/dc/dcmitype/StillImage" /></cc:Work></rdf:RDF></metadata><defs
     id="defs87" /><sodipodi:namedview
     pagecolor="#ffffff"
     bordercolor="#666666"
     borderopacity="1"
     objecttolerance="10"
     gridtolerance="10"
     guidetolerance="10"
     inkscape:pageopacity="0"
     inkscape:pageshadow="2"
     inkscape:window-width="789"
     inkscape:window-height="480"
     id="namedview85"
     showgrid="false"
     inkscape:zoom="14.75"
     inkscape:cx="8"
     inkscape:cy="8"
     inkscape:window-x="0"
     inkscape:window-y="25"
     inkscape:window-maximized="0"
     inkscape:current-layer="Capa_1" /><g
     id="g1288"
     transform="translate(-626.08573,-12.08411)"><path
       style="fill:#257247;fill-opacity:1"
       inkscape:connector-curvature="0"
       id="path2-6"
       d="m 882.08573,118.08411 30,-42.859378 -30,-63.140625 c -70.30469,0 -134.05469,29.597656 -180.23047,75.769531 l 12.375,72.375002 61.83984,1.83984 c 27.16407,-27.16015 64.66407,-43.98437 106.01563,-43.98437 z m 0,0" /><path
       style="fill:#dedede;fill-opacity:1"
       inkscape:connector-curvature="0"
       id="path4-7"
       d="m 882.08573,118.08411 c 41.35156,0 78.85156,16.82422 106.01562,43.98437 l 60.41405,-0.41406 13.7969,-73.796875 C 1016.1404,41.681763 952.39042,12.084107 882.08573,12.084107 Z m 0,0" /><path
       style="fill:#257247;fill-opacity:1"
       inkscape:connector-curvature="0"
       id="path6-5"
       d="m 1032.0857,268.08411 45,30 61,-30 c 0,-70.30469 -29.5976,-134.05469 -75.7695,-180.230472 l -74.21485,74.214842 c 27.16015,27.16407 43.98435,64.66407 43.98435,106.01563 z m 0,0" /><path
       style="fill:#dedede;fill-opacity:1"
       inkscape:connector-curvature="0"
       id="path8-3"
       d="m 988.10135,374.09973 c 0,0 -13.49218,46.50391 9.00782,68.91797 10.78903,10.75 52.95313,-7.14453 65.33593,5.15235 46.0977,-46.16407 75.6406,-109.85157 75.6406,-180.08594 h -106 c 0,41.35156 -16.8242,78.85156 -43.98435,106.01562 z m 0,0" /><path
       style="fill:#257247;fill-opacity:1"
       inkscape:connector-curvature="0"
       id="path10-5"
       d="m 882.08573,418.08411 -30,56.25 30,49.75 c 70.30469,0 134.05467,-29.59766 180.23047,-75.76953 0.043,-0.0469 0.086,-0.10156 0.1289,-0.14453 -38.207,-37.94141 -74.34375,-74.07032 -74.34375,-74.07032 -27.16406,27.16016 -64.66406,43.98438 -106.01562,43.98438 z m 0,0" /><path
       style="fill:#dedede;fill-opacity:1"
       inkscape:connector-curvature="0"
       id="path12-6"
       d="m 882.08573,418.08411 c -41.35156,0 -78.85156,-16.82422 -106.01563,-43.98438 l -61.83984,1.83985 -12.37109,72.37109 c 46.17187,46.17578 109.92187,75.77344 180.22656,75.77344 z m 0,0" /><path
       style="fill:#257247;fill-opacity:1"
       inkscape:connector-curvature="0"
       id="path14-2"
       d="M 776.0701,374.09973 C 748.90995,346.93567 732.08573,309.43567 732.08573,268.08411 l -52.5,-30 -53.5,30 c 0,70.30469 29.59766,134.05469 75.76953,180.23047 z m 0,0" /><path
       style="fill:#dedede;fill-opacity:1"
       inkscape:connector-curvature="0"
       id="path16-9"
       d="M 776.0701,162.06848 701.85526,87.853638 C 655.68339,134.02942 626.08573,197.77942 626.08573,268.08411 h 106 c 0,-41.35156 16.82422,-78.85156 43.98437,-106.01563 z m 0,0" /><path
       style="fill:#ffffff;fill-opacity:1;stroke-width:1.11111116"
       inkscape:connector-curvature="0"
       id="path18-1"
       d="m 882.08573,84.750774 c -101.0026,0 -183.33333,82.330736 -183.33333,183.333336 0,101.0026 82.33073,183.33333 183.33333,183.33333 101.0026,0 183.33337,-82.33073 183.33337,-183.33333 0,-101.0026 -82.33077,-183.333336 -183.33337,-183.333336 z m 0,0" /><path
       style="fill:#ede9e8;stroke-width:1.11111116"
       inkscape:connector-curvature="0"
       id="path22-2"
       d="m 882.08573,118.08411 c -82.66493,0 -150,67.33507 -150,150 0,82.66493 67.33507,150 150,150 82.66493,0 149.99997,-67.33507 149.99997,-150 0,-82.66493 -67.33504,-150 -149.99997,-150 z m 0,0" /><g
       aria-label="500"
       style="font-style:normal;font-weight:normal;font-size:161.40856934px;line-height:1.25;font-family:sans-serif;letter-spacing:0px;word-spacing:0px;fill:#000000;fill-opacity:1;stroke:none;stroke-width:4.03521442"
       id="text1096-7"><path
         d="m 802.08508,339.02315 q -16.62508,0 -26.47101,-8.07043 -9.84592,-8.23184 -9.84592,-24.21129 v -20.49889 h 28.89214 v 11.78283 q 0,7.10198 1.45267,11.13719 1.45268,4.03521 5.97212,4.03521 4.19662,0 5.6493,-2.74394 1.61409,-2.74395 1.61409,-8.07043 v -27.27805 q 0,-6.61775 -1.45268,-10.49155 -1.29127,-4.03522 -5.6493,-4.03522 -7.90902,0 -7.90902,11.46001 h -25.34115 v -73.76372 h 66.01611 v 25.98678 h -39.70651 v 19.53044 q 2.09831,-2.74395 5.6493,-4.51944 3.55099,-1.77549 8.07043,-1.77549 17.43212,0 23.72706,12.26705 6.45634,12.26705 6.45634,34.70284 0,18.56198 -2.74395,30.1834 -2.58253,11.46001 -10.65296,17.91635 -8.07043,6.45635 -23.72706,6.45635 z"
         style="font-style:normal;font-variant:normal;font-weight:normal;font-stretch:normal;font-family:Anton;-inkscape-font-specification:Anton;fill:#000000;fill-opacity:1;stroke-width:4.03521442"
         id="path6779" /><path
         d="m 881.84361,338.37751 q -17.59353,0 -27.11664,-9.84592 -9.52311,-10.00733 -9.52311,-28.40791 v -62.62652 q 0,-19.69185 9.20029,-30.022 9.20029,-10.33015 27.43946,-10.33015 18.40058,0 27.60086,10.33015 9.20029,10.33015 9.20029,30.022 v 62.62652 q 0,18.56199 -9.5231,28.40791 -9.52311,9.84592 -27.27805,9.84592 z m 0,-25.50255 q 3.06676,0 5.00367,-2.74395 1.9369,-2.90535 1.9369,-6.77916 v -68.43723 q 0,-5.97212 -1.45268,-9.03888 -1.29127,-3.22817 -5.48789,-3.22817 -4.19662,0 -5.48789,3.22817 -1.29127,3.06676 -1.29127,9.03888 v 68.43723 q 0,3.87381 1.77549,6.77916 1.93691,2.74395 5.00367,2.74395 z"
         style="font-style:normal;font-variant:normal;font-weight:normal;font-stretch:normal;font-family:Anton;-inkscape-font-specification:Anton;fill:#000000;fill-opacity:1;stroke-width:4.03521442"
         id="path6781" /><path
         d="m 961.60214,338.37751 q -17.59354,0 -27.11664,-9.84592 -9.52311,-10.00733 -9.52311,-28.40791 v -62.62652 q 0,-19.69185 9.20029,-30.022 9.20029,-10.33015 27.43946,-10.33015 18.40058,0 27.60086,10.33015 9.20029,10.33015 9.20029,30.022 v 62.62652 q 0,18.56199 -9.5231,28.40791 -9.52311,9.84592 -27.27805,9.84592 z m 0,-25.50255 q 3.06676,0 5.00366,-2.74395 1.93691,-2.90535 1.93691,-6.77916 v -68.43723 q 0,-5.97212 -1.45268,-9.03888 -1.29127,-3.22817 -5.48789,-3.22817 -4.19662,0 -5.48789,3.22817 -1.29127,3.06676 -1.29127,9.03888 v 68.43723 q 0,3.87381 1.77549,6.77916 1.93691,2.74395 5.00367,2.74395 z"
         style="font-style:normal;font-variant:normal;font-weight:normal;font-stretch:normal;font-family:Anton;-inkscape-font-specification:Anton;fill:#000000;fill-opacity:1;stroke-width:4.03521442"
         id="path6783" /></g></g></svg>